<?xml version="1.0" standalone="no"?>
<!DOCTYPE svg PUBLIC "-//W3C//DTD SVG 20010904//EN"
 "http://www.w3.org/TR/2001/REC-SVG-20010904/DTD/svg10.dtd">
<svg version="1.0" xmlns="http://www.w3.org/2000/svg"
 width="512.000000pt" height="512.000000pt" viewBox="0 0 512.000000 512.000000"
 preserveAspectRatio="xMidYMid meet">

<g transform="translate(0.000000,512.000000) scale(0.100000,-0.100000)"
fill="#000000" stroke="none">
<path d="M1965 4475 c-256 -36 -462 -98 -683 -205 -628 -304 -1089 -889 -1227
-1556 -35 -169 -46 -283 -45 -478 0 -299 48 -560 151 -819 290 -729 929 -1249
1704 -1388 171 -31 493 -38 676 -14 775 98 1444 594 1765 1307 62 138 119 316
149 461 28 140 23 183 -25 219 -54 40 -146 20 -181 -41 -151 -255 -376 -463
-634 -586 -201 -96 -391 -139 -620 -139 -380 0 -729 144 -1005 414 -579 568
-584 1472 -11 2041 268 266 566 400 954 427 102 8 120 12 142 32 53 49 54 123
3 177 -33 35 -263 103 -468 139 -132 23 -510 28 -645 9z m539 -203 l39 -7 -74
-23 c-110 -35 -321 -143 -429 -219 -122 -87 -306 -272 -392 -393 -80 -113
-175 -300 -218 -427 -154 -463 -94 -976 163 -1388 247 -397 639 -668 1102
-762 139 -28 493 -25 628 5 283 63 542 190 752 370 39 33 72 59 74 57 6 -7
-108 -237 -156 -315 -212 -344 -537 -629 -898 -788 -557 -246 -1186 -237
-1723 23 -135 65 -258 140 -367 224 -84 64 -266 242 -338 331 -225 279 -378
626 -434 983 -24 153 -24 451 0 604 105 675 538 1254 1160 1548 192 91 459
164 677 185 97 9 364 4 434 -8z"/>
<path d="M675 2321 c-161 -40 -269 -225 -236 -405 24 -131 98 -234 208 -288
260 -128 515 130 425 429 -57 188 -232 304 -397 264z m155 -136 c88 -46 145
-155 137 -265 -5 -74 -21 -112 -68 -158 -98 -96 -254 -43 -323 108 -28 63 -28
170 1 225 54 102 158 139 253 90z"/>
<path d="M1442 1337 c-55 -21 -103 -67 -129 -125 -21 -45 -25 -65 -21 -116 13
-156 138 -276 288 -276 104 0 179 48 217 137 19 48 16 160 -6 209 -27 59 -87
121 -145 151 -59 30 -154 39 -204 20z m143 -126 c72 -33 105 -86 105 -167 0
-112 -141 -144 -227 -52 -28 30 -53 89 -53 125 0 15 9 43 20 61 33 54 86 65
155 33z"/>
<path d="M423 4343 c9 -2 23 -2 30 0 6 3 -1 5 -18 5 -16 0 -22 -2 -12 -5z"/>
<path d="M3307 3716 c-78 -29 -102 -58 -187 -226 -44 -88 -84 -160 -88 -160
-43 -2 -327 -52 -353 -63 -80 -33 -138 -142 -125 -234 9 -71 45 -121 168 -236
l112 -106 -28 -166 c-19 -110 -26 -181 -22 -210 16 -106 114 -185 228 -185 53
0 71 7 213 80 l155 81 155 -81 c143 -73 160 -80 214 -80 90 0 156 35 196 105
39 65 40 112 10 291 l-28 161 118 114 c157 151 187 216 154 332 -12 43 -68
111 -111 133 -22 11 -314 63 -360 64 -5 0 -42 69 -84 153 -42 83 -86 163 -98
175 -52 58 -166 86 -239 58z m171 -364 c45 -93 93 -178 106 -191 20 -18 55
-27 216 -52 106 -16 195 -29 197 -29 19 0 -20 -47 -142 -170 -107 -108 -145
-153 -145 -171 0 -13 14 -100 30 -194 35 -196 35 -205 15 -205 -9 0 -89 38
-179 85 -107 56 -174 85 -195 85 -22 0 -88 -29 -196 -85 -158 -83 -195 -97
-195 -74 0 6 14 92 30 192 17 99 28 192 25 207 -3 16 -60 80 -145 165 -77 77
-140 145 -140 152 0 14 12 16 210 44 85 12 169 27 187 34 27 12 42 35 112 177
100 201 98 198 114 198 8 0 50 -76 95 -168z"/>
<path d="M4770 2726 c0 -2 8 -10 18 -17 15 -13 16 -12 3 4 -13 16 -21 21 -21
13z"/>
</g>
</svg>
